# xmcd CD database file
#
# Track frame offsets:
#	150
#	15450
#	29025
#	43725
#	61800
#	80925
#	101700
#	124950
#	133575
#	143775
#	157650
#	173925
#	183750
#	203025
#	216150
#	228450
#	241425
#	249150
#	267075
#	282000
#
# Disc length: 3958 seconds
#
# Revision: 0
# Processed by: cddbd v1.5.1PL2 Copyright (c) Steve Scherf et al.
# Submitted via: Feurio! 1.68 - http://www.feurio.com
#
DISCID=190f7414
DTITLE=Golly - Schakale Musenmus
DYEAR=1900
DGENRE=
TTITLE0=I've been loving You too long
TTITLE1=Suchscheinwerferblick
TTITLE2=Drunten am Bach
TTITLE3=Der Körper tannzt und singt
TTITLE4=Liebesbrief
TTITLE5=Einladung zum Blues
TTITLE6=Somewhere/Es gibt keine Zukunft
TTITLE7=Abschied (real)
TTITLE8=Abschied (sureal)
TTITLE9=Abschied (irreal)
TTITLE10=Gedanken tanzen Tango
TTITLE11=Lied für den Wind
TTITLE12=Schakale
TTITLE13=Und wenn mich das umbringt sterb ich gern
TTITLE14=Alles schnurgerade aus
TTITLE15=Nichts ist wahr - Alles ist erlaubt
TTITLE16=Stalker Blues
TTITLE17=Emotionales Interieur
TTITLE18=Das lässt mich kalt
TTITLE19=Oh weh!
EXTD=
EXTT0=
EXTT1=
EXTT2=
EXTT3=
EXTT4=
EXTT5=
EXTT6=
EXTT7=
EXTT8=
EXTT9=
EXTT10=
EXTT11=
EXTT12=
EXTT13=
EXTT14=
EXTT15=
EXTT16=
EXTT17=
EXTT18=
EXTT19=
PLAYORDER=
